<?xml version="1.0" standalone="no"?>
<!DOCTYPE svg PUBLIC "-//W3C//DTD SVG 20010904//EN"
 "http://www.w3.org/TR/2001/REC-SVG-20010904/DTD/svg10.dtd">
<svg version="1.0" xmlns="http://www.w3.org/2000/svg"
 width="1280.000000pt" height="776.000000pt" viewBox="0 0 1280.000000 776.000000"
 preserveAspectRatio="xMidYMid meet">
<metadata>
Created by potrace 1.15, written by Peter Selinger 2001-2017
</metadata>
<g transform="translate(0.000000,776.000000) scale(0.100000,-0.100000)"
fill="#000000" stroke="none">
  <path d="M1389 4412 c-88 -57 -190 -193 -234 -315 -61 -167 -78 -467 -37 -621
12 -44 31 -95 42 -113 27 -46 25 -52 -8 -21 -15 14 -42 28 -59 30 -30 4 -32 3
-26 -20 5 -23 3 -24 -21 -20 -20 4 -24 2 -17 -5 6 -6 11 -21 11 -32 0 -12 11
-32 25 -45 31 -29 27 -35 -12 -15 -136 68 -454 52 -688 -35 -83 -31 -182 -97
-254 -169 -59 -59 -111 -143 -111 -179 0 -29 38 -58 141 -106 53 -25 139 -74
191 -109 106 -72 163 -91 230 -75 46 10 112 55 173 117 21 23 42 41 46 41 3 0
4 -31 1 -70 -4 -56 0 -85 22 -153 40 -131 130 -219 251 -248 28 -6 70 -23 94
-36 43 -25 47 -25 136 -15 81 9 103 16 179 58 60 32 95 58 112 83 13 20 34 48
46 64 21 26 21 30 9 95 -7 37 -16 85 -20 107 -8 45 -45 126 -115 253 -26 45
-43 82 -39 82 5 0 50 -36 100 -80 101 -87 133 -108 133 -89 0 7 -46 58 -102
115 -56 57 -99 104 -95 104 4 0 45 -18 92 -40 47 -22 117 -51 157 -64 70 -23
216 -44 268 -38 45 6 125 99 170 199 36 81 40 99 40 169 0 77 -1 82 -66 212
-59 119 -73 139 -121 177 -60 47 -93 59 -204 76 -62 10 -83 9 -127 -3 -28 -9
-52 -13 -52 -11 0 3 24 36 54 72 65 80 84 117 92 175 9 60 -25 131 -106 221
-34 39 -78 97 -97 130 -113 195 -120 200 -204 147z"/>
</g>
</svg>
